<svg id="图层_1" data-name="图层 1" xmlns="http://www.w3.org/2000/svg" xmlns:xlink="http://www.w3.org/1999/xlink" viewBox="0 0 190.25 80.18"><defs><style>.cls-1{fill:url(#未命名的渐变_17);}.cls-2{fill:url(#未命名的渐变_17-2);}.cls-3{fill:url(#未命名的渐变_17-3);}.cls-4{fill:url(#未命名的渐变_18);}.cls-5{fill:url(#未命名的渐变_18-2);}.cls-6{fill:url(#未命名的渐变_18-3);}</style><linearGradient id="未命名的渐变_17" x1="18.73" y1="43.88" x2="171.87" y2="43.88" gradientUnits="userSpaceOnUse"><stop offset="0" stop-color="#9ec5dd"/><stop offset="0.94" stop-color="#ad5fa2"/></linearGradient><linearGradient id="未命名的渐变_17-2" x1="51.05" y1="55.31" x2="141.61" y2="55.31" xlink:href="#未命名的渐变_17"/><linearGradient id="未命名的渐变_17-3" x1="-56.33" y1="638.2" x2="133.88" y2="638.2" gradientTransform="matrix(1, -0.02, -0.02, -1, 69.76, 701.9)" xlink:href="#未命名的渐变_17"/><linearGradient id="未命名的渐变_18" x1="85.56" y1="48.09" x2="105.03" y2="48.09" gradientUnits="userSpaceOnUse"><stop offset="0.1" stop-color="#a2d9f4"/><stop offset="0.94" stop-color="#9b5792"/></linearGradient><linearGradient id="未命名的渐变_18-2" x1="88.3" y1="20.14" x2="100.87" y2="20.14" xlink:href="#未命名的渐变_18"/><linearGradient id="未命名的渐变_18-3" x1="91.08" y1="3.51" x2="98.09" y2="3.51" xlink:href="#未命名的渐变_18"/></defs><path class="cls-1" d="M35.74,55.88c-.34.49-16.65-2.67-17-6.84-.58-6.66,39-17.68,78.2-17.2,37.78.46,75.37,11.6,74.93,17.85-.27,4-16,6.53-16.13,6.09s10.5-2.56,10.52-5.46c0-5.29-35.41-11.69-69.53-11.72-34.38,0-69.93,6.39-69.93,11.91C26.79,53.29,36,55.51,35.74,55.88Z"/><path class="cls-2" d="M115.53,45.9c.07-.42,25.65,1.24,26.07,6.16C142,56.8,119,64.91,96.09,64.77s-45.5-8.46-45-13.07,24.54-5.91,24.6-5.58S55,48.28,54.91,51.83s21.11,8,40.93,8.07c19.47.06,40.6-4.08,40.57-7.75S115.46,46.27,115.53,45.9Z"/><path class="cls-3" d="M11.38,47.58C11.29,47.43.32,51,0,55.1c-.66,8.8,47,25.17,96.3,25.08,47.49-.08,94.42-15.44,93.93-25.05-.23-4.54-11.1-8.93-11.38-8.55s6,3.19,6.06,6.25c.14,8.15-43.8,19.3-88.56,19.41C49.54,72.35,3.72,60.38,4,53.06,4.17,50.19,11.45,47.7,11.38,47.58Z"/><path class="cls-4" d="M95.78,54.37c.88,0,8.11-.17,9.12-3.39s-4.12-9.3-9.9-9.16c-5.46.13-10.29,5.81-9.31,9C86.8,54.48,95.28,54.38,95.78,54.37Z"/><circle class="cls-5" cx="94.58" cy="20.14" r="6.29"/><circle class="cls-6" cx="94.58" cy="3.51" r="3.51"/></svg>